<?xml version="1.0" encoding="UTF-8" standalone="no"?>
<!DOCTYPE svg PUBLIC "-//W3C//DTD SVG 1.1//EN" "http://www.w3.org/Graphics/SVG/1.1/DTD/svg11.dtd">
<svg width="100%" height="100%" viewBox="0 0 122 122" version="1.1" xmlns="http://www.w3.org/2000/svg" xmlns:xlink="http://www.w3.org/1999/xlink" xml:space="preserve" xmlns:serif="http://www.serif.com/" style="fill-rule:evenodd;clip-rule:evenodd;stroke-linejoin:round;stroke-miterlimit:2;">
    <g transform="matrix(1,0,0,1,-276.005,-497.039)">
        <g transform="matrix(1,0,0,1,282.005,503.039)">
            <clipPath id="_clip1">
                <path d="M0,51.2C0,33.278 0,24.317 3.488,17.472C6.556,11.451 11.451,6.556 17.472,3.488C24.317,0 33.278,0 51.2,0L57.8,0C75.722,0 84.683,0 91.528,3.488C97.549,6.556 102.444,11.451 105.512,17.472C109,24.317 109,33.278 109,51.2L109,57.8C109,75.722 109,84.683 105.512,91.528C102.444,97.549 97.549,102.444 91.528,105.512C84.683,109 75.722,109 57.8,109L51.2,109C33.278,109 24.317,109 17.472,105.512C11.451,102.444 6.556,97.549 3.488,91.528C0,84.683 0,75.722 0,57.8L0,51.2Z"/>
            </clipPath>
            <g clip-path="url(#_clip1)">
                <path d="M17.472,105.512L14.748,110.858L17.472,105.512ZM3.488,91.528L-1.858,94.252L3.488,91.528ZM105.512,91.528L100.166,88.804L105.512,91.528ZM91.528,105.512L88.804,100.166L91.528,105.512ZM105.512,17.472L110.858,14.748L105.512,17.472ZM17.472,3.488L14.748,-1.858L17.472,3.488ZM3.488,17.472L-1.858,14.748L3.488,17.472ZM51.2,6L57.8,6L57.8,-6L51.2,-6L51.2,6ZM103,51.2L103,57.8L115,57.8L115,51.2L103,51.2ZM57.8,103L51.2,103L51.2,115L57.8,115L57.8,103ZM6,57.8L6,51.2L-6,51.2L-6,57.8L6,57.8ZM51.2,103C42.14,103 35.706,102.995 30.671,102.584C25.706,102.178 22.632,101.407 20.196,100.166L14.748,110.858C19.158,113.105 23.987,114.078 29.694,114.544C35.331,115.005 42.338,115 51.2,115L51.2,103ZM-6,57.8C-6,66.662 -6.005,73.669 -5.544,79.306C-5.078,85.013 -4.105,89.842 -1.858,94.252L8.834,88.804C7.593,86.368 6.822,83.294 6.416,78.329C6.005,73.294 6,66.86 6,57.8L-6,57.8ZM20.196,100.166C15.304,97.673 11.327,93.696 8.834,88.804L-1.858,94.252C1.785,101.402 7.598,107.215 14.748,110.858L20.196,100.166ZM103,57.8C103,66.86 102.995,73.294 102.584,78.329C102.178,83.294 101.407,86.368 100.166,88.804L110.858,94.252C113.105,89.842 114.078,85.013 114.544,79.306C115.005,73.669 115,66.662 115,57.8L103,57.8ZM57.8,115C66.662,115 73.669,115.005 79.306,114.544C85.013,114.078 89.842,113.105 94.252,110.858L88.804,100.166C86.368,101.407 83.294,102.178 78.329,102.584C73.294,102.995 66.86,103 57.8,103L57.8,115ZM100.166,88.804C97.673,93.696 93.696,97.673 88.804,100.166L94.252,110.858C101.402,107.215 107.215,101.402 110.858,94.252L100.166,88.804ZM57.8,6C66.86,6 73.294,6.005 78.329,6.416C83.294,6.822 86.368,7.593 88.804,8.834L94.252,-1.858C89.842,-4.105 85.013,-5.078 79.306,-5.544C73.669,-6.005 66.662,-6 57.8,-6L57.8,6ZM115,51.2C115,42.338 115.005,35.331 114.544,29.694C114.078,23.987 113.105,19.158 110.858,14.748L100.166,20.196C101.407,22.632 102.178,25.706 102.584,30.671C102.995,35.706 103,42.14 103,51.2L115,51.2ZM88.804,8.834C93.696,11.327 97.673,15.304 100.166,20.196L110.858,14.748C107.215,7.598 101.402,1.785 94.252,-1.858L88.804,8.834ZM51.2,-6C42.338,-6 35.331,-6.005 29.694,-5.544C23.987,-5.078 19.158,-4.105 14.748,-1.858L20.196,8.834C22.632,7.593 25.706,6.822 30.671,6.416C35.706,6.005 42.14,6 51.2,6L51.2,-6ZM6,51.2C6,42.14 6.005,35.706 6.416,30.671C6.822,25.706 7.593,22.632 8.834,20.196L-1.858,14.748C-4.105,19.158 -5.078,23.987 -5.544,29.694C-6.005,35.331 -6,42.338 -6,51.2L6,51.2ZM14.748,-1.858C7.598,1.785 1.785,7.598 -1.858,14.748L8.834,20.196C11.327,15.304 15.304,11.327 20.196,8.834L14.748,-1.858Z" style="fill:rgb(11,156,116);fill-rule:nonzero;"/>
            </g>
        </g>
        <path d="M385.79,531.057C385.79,518.048 375.228,507.486 362.219,507.486L311.061,507.486C298.051,507.486 287.49,518.048 287.49,531.057L287.49,583.775C287.49,596.784 298.051,607.346 311.061,607.346L362.219,607.346C375.228,607.346 385.79,596.784 385.79,583.775L385.79,531.057Z" style="fill:rgb(11,156,116);"/>
        <g transform="matrix(1,0,0,1,350.139,502.946)">
            <g>
                <g transform="matrix(0.994911,0.100762,-0.100762,0.994911,-47.778,4.69557)">
                    <path d="M77.414,43.18L77.441,43.743L77.461,44.306L77.472,44.869L77.475,45.433L77.47,45.997L77.457,46.561L77.435,47.125L77.405,47.689L77.366,48.253L77.319,48.816L77.264,49.378L77.201,49.94L77.129,50.501L77.049,51.061L76.961,51.619L76.864,52.177L76.759,52.733L76.646,53.287L76.525,53.84L76.396,54.39L76.258,54.939L76.113,55.486L75.959,56.03L75.798,56.572L75.628,57.112L75.451,57.649L75.266,58.183L75.074,58.715L74.873,59.243L74.666,59.769L74.45,60.291L74.228,60.81L73.998,61.325L73.761,61.837L73.517,62.346L73.265,62.851L73.007,63.352L72.742,63.849L72.47,64.342L72.191,64.831L71.906,65.316L71.615,65.797L71.316,66.273L71.012,66.745L70.701,67.212L70.384,67.675L70.061,68.133L69.732,68.587L69.397,69.035L69.056,69.479L68.71,69.917L68.357,70.351L67.999,70.779L67.636,71.202L67.267,71.62L66.892,72.032L66.512,72.439L66.127,72.84L65.737,73.235L65.341,73.625L64.941,74.008L64.535,74.386L64.125,74.757L63.71,75.123L63.291,75.482L62.866,75.835L62.438,76.182L62.005,76.522L61.567,76.856L61.126,77.184L60.68,77.504L60.23,77.819L59.777,78.126L59.32,78.427L58.859,78.72L58.394,79.007L57.927,79.287L57.455,79.56L56.981,79.827L56.504,80.086L56.023,80.338L55.54,80.583L55.054,80.82L54.565,81.051L54.074,81.274L53.581,81.491L53.085,81.7L52.587,81.902L52.088,82.096L51.586,82.284L51.082,82.464L50.577,82.636L50.07,82.801L49.562,82.959L49.052,83.11L48.541,83.253L48.029,83.388L47.516,83.516L47.002,83.636L46.487,83.749L45.972,83.855L45.456,83.953L44.939,84.043L44.423,84.126L43.906,84.201L43.388,84.268L42.871,84.328L42.355,84.381L41.838,84.426L41.322,84.464L40.806,84.494L40.291,84.516L39.777,84.532L39.263,84.54L38.751,84.54L38.239,84.534L37.729,84.52L37.221,84.499L36.713,84.471L36.208,84.436L35.704,84.394L35.201,84.345L34.701,84.289L34.203,84.227L33.706,84.158L33.212,84.082L32.721,84L32.231,83.911L31.744,83.816L31.26,83.715L30.778,83.608L30.299,83.495L29.823,83.375L29.35,83.25L28.88,83.119L28.412,82.982L27.948,82.84L27.487,82.692L27.029,82.538L26.575,82.379L26.124,82.215L25.676,82.045L25.232,81.87L24.792,81.69L24.355,81.505L23.922,81.315L23.492,81.12L23.067,80.919L22.645,80.715L22.227,80.505L21.813,80.291L21.403,80.072L20.997,79.848L20.595,79.621L20.198,79.389L19.804,79.152L19.415,78.912L19.03,78.667L18.649,78.419L18.272,78.167L17.9,77.911L17.532,77.651L17.169,77.388L16.81,77.121L16.455,76.85L16.105,76.577L15.76,76.3L15.418,76.02L15.082,75.737L14.749,75.451L14.422,75.162L14.098,74.87L13.779,74.576L13.465,74.279L13.155,73.98L12.85,73.678L12.549,73.373L12.253,73.067L11.961,72.758L11.673,72.448L11.39,72.135L11.112,71.82L10.838,71.503L10.568,71.185L10.302,70.865L10.041,70.543L9.785,70.22L9.532,69.895L9.284,69.569L9.04,69.241L8.801,68.912L8.565,68.582L8.334,68.251L8.107,67.918L7.884,67.585L7.665,67.25L7.45,66.915L7.239,66.579L7.032,66.242L6.829,65.904L6.63,65.566L6.435,65.227L6.243,64.887L6.055,64.547L5.871,64.207L5.69,63.866L5.513,63.525L5.339,63.183L5.169,62.841L5.002,62.499L4.838,62.157L4.678,61.815L4.521,61.472L4.366,61.13L4.215,60.787L4.067,60.445L3.922,60.102L3.78,59.759L3.641,59.417L3.504,59.074L3.37,58.732L3.239,58.389L3.111,58.047L2.985,57.704L2.862,57.362L2.741,57.02L2.623,56.677L2.507,56.335L2.394,55.993L2.283,55.65L2.175,55.308L2.069,54.965L1.966,54.623L1.865,54.28L1.767,53.937L1.672,53.594L1.578,53.251L1.488,52.908L1.399,52.564L1.314,52.221L1.23,51.877L1.15,51.533L1.071,51.188L0.996,50.844L0.923,50.499L0.852,50.154L0.784,49.808L0.719,49.462L0.656,49.116L0.596,48.77L0.539,48.423L0.484,48.076L0.432,47.729L0.383,47.381L0.337,47.033L0.293,46.684L0.252,46.335L0.215,45.986L0.18,45.637L0.148,45.287L0.119,44.936L0.092,44.586L0.07,44.235L0.05,43.884L0.033,43.532L0.02,43.18L0.01,42.828L0.003,42.476L0,42.123L0,41.77L0.005,41.417L0.012,41.064L0.024,40.711L0.04,40.358L0.059,40.004L0.083,39.651L0.111,39.298L0.143,38.945L0.18,38.593L0.221,38.24L0.266,37.888L0.317,37.537L0.371,37.186L0.431,36.836L0.495,36.486L0.565,36.138L0.639,35.79L0.718,35.443L0.803,35.097L0.892,34.753L0.987,34.41L1.087,34.068L1.192,33.727L1.302,33.389L1.417,33.052L1.538,32.717L1.664,32.384L1.795,32.052L1.931,31.723L2.073,31.396L2.219,31.072L2.371,30.75L2.528,30.43L2.689,30.113L2.856,29.799L3.028,29.487L3.204,29.179L3.385,28.873L3.571,28.57L3.762,28.27L3.957,27.973L4.156,27.68L4.36,27.39L4.568,27.103L4.781,26.819L4.997,26.539L5.217,26.262L5.442,25.989L5.67,25.719L5.901,25.452L6.136,25.189L6.375,24.93L6.617,24.674L6.862,24.421L7.11,24.172L7.361,23.927L7.615,23.685L7.872,23.447L8.131,23.211L8.393,22.98L8.657,22.751L8.923,22.526L9.192,22.304L9.462,22.084L9.734,21.868L10.008,21.655L10.284,21.445L10.561,21.237L10.839,21.032L11.119,20.83L11.4,20.63L11.682,20.432L11.966,20.237L12.25,20.044L12.535,19.852L12.821,19.663L13.108,19.475L13.396,19.289L13.684,19.104L13.974,18.921L14.263,18.738L14.554,18.558L14.845,18.378L15.136,18.198L15.429,18.02L15.722,17.842L16.015,17.665L16.309,17.489L16.604,17.312L16.9,17.136L17.196,16.96L17.494,16.784L17.792,16.609L18.091,16.433L18.391,16.257L18.692,16.08L18.994,15.904L19.297,15.727L19.602,15.55L19.908,15.373L20.216,15.195L20.525,15.017L20.836,14.838L21.148,14.659L21.463,14.48L21.779,14.3L22.098,14.12L22.418,13.94L22.741,13.759L23.067,13.579L23.395,13.398L23.725,13.217L24.058,13.037L24.394,12.856L24.733,12.676L25.075,12.496L25.419,12.317L25.767,12.138L26.119,11.96L26.473,11.783L26.831,11.607L27.192,11.432L27.557,11.258L27.926,11.086L28.298,10.916L28.674,10.747L29.053,10.581L29.436,10.417L29.823,10.255L30.214,10.095L30.609,9.939L31.007,9.785L31.409,9.634L31.815,9.487L32.225,9.343L32.639,9.203L33.056,9.067L33.477,8.935L33.902,8.807L34.33,8.683L34.762,8.564L35.198,8.45L35.637,8.341L36.079,8.237L36.525,8.138L36.974,8.045L37.426,7.958L37.881,7.876L38.339,7.801L38.8,7.732L39.264,7.669L39.73,7.613L40.198,7.563L40.669,7.52L41.142,7.484L41.618,7.456L42.095,7.434L42.574,7.421L43.054,7.414L43.536,7.415L44.019,7.424L44.503,7.441L44.989,7.465L45.475,7.498L45.962,7.538L46.449,7.587L46.937,7.644L47.424,7.709L47.912,7.782L48.4,7.864L48.887,7.954L49.373,8.052L49.86,8.159L50.345,8.273L50.829,8.397L51.312,8.529L51.794,8.669L52.274,8.817L52.752,8.974L53.229,9.139L53.704,9.312L54.177,9.493L54.647,9.683L55.115,9.881L55.581,10.087L56.044,10.301L56.504,10.522L56.961,10.752L57.415,10.989L57.867,11.235L58.314,11.487L58.759,11.748L59.2,12.015L59.637,12.29L60.071,12.573L60.501,12.862L60.928,13.159L61.35,13.462L61.769,13.772L62.183,14.089L62.594,14.413L63,14.743L63.402,15.079L63.799,15.422L64.193,15.771L64.582,16.126L64.966,16.487L65.347,16.855L65.722,17.227L66.093,17.606L66.46,17.99L66.822,18.379L67.179,18.774L67.531,19.175L67.879,19.58L68.222,19.991L68.56,20.407L68.893,20.828L69.221,21.254L69.544,21.685L69.861,22.12L70.174,22.56L70.481,23.005L70.783,23.455L71.08,23.909L71.371,24.367L71.656,24.83L71.936,25.298L72.21,25.769L72.478,26.245L72.74,26.725L72.996,27.209L73.246,27.698L73.489,28.19L73.726,28.686L73.957,29.185L74.181,29.689L74.398,30.196L74.609,30.706L74.813,31.22L75.009,31.737L75.199,32.258L75.382,32.782L75.558,33.308L75.726,33.838L75.887,34.371L76.04,34.906L76.186,35.444L76.325,35.984L76.456,36.527L76.579,37.071L76.694,37.619L76.802,38.168L76.902,38.719L76.994,39.272L77.078,39.826L77.154,40.382L77.222,40.939L77.282,41.498L77.334,42.058L77.378,42.619L77.414,43.18" style="fill:white;fill-opacity:0.6;"/>
                </g>
                <g transform="matrix(-0.966766,0.255664,-0.255664,-0.966766,20.9997,88.2757)">
                    <path d="M51.423,38.514L51.438,38.859L51.449,39.203L51.456,39.548L51.46,39.894L51.46,40.239L51.455,40.584L51.447,40.93L51.435,41.276L51.419,41.621L51.4,41.967L51.376,42.313L51.348,42.658L51.316,43.003L51.28,43.348L51.24,43.693L51.196,44.037L51.148,44.381L51.096,44.724L51.039,45.067L50.978,45.409L50.913,45.75L50.844,46.091L50.771,46.431L50.693,46.77L50.611,47.108L50.525,47.446L50.434,47.782L50.339,48.117L50.24,48.45L50.136,48.783L50.028,49.114L49.916,49.444L49.799,49.772L49.679,50.099L49.554,50.424L49.424,50.747L49.29,51.069L49.153,51.389L49.011,51.707L48.864,52.023L48.714,52.337L48.56,52.649L48.401,52.959L48.239,53.267L48.072,53.573L47.902,53.876L47.728,54.177L47.55,54.476L47.368,54.772L47.182,55.066L46.992,55.358L46.799,55.646L46.602,55.932L46.402,56.216L46.198,56.497L45.99,56.775L45.779,57.05L45.565,57.322L45.347,57.591L45.126,57.858L44.901,58.121L44.674,58.381L44.443,58.639L44.209,58.893L43.972,59.144L43.732,59.392L43.489,59.637L43.244,59.879L42.995,60.118L42.744,60.353L42.49,60.585L42.234,60.814L41.975,61.04L41.714,61.262L41.45,61.481L41.184,61.697L40.915,61.91L40.645,62.119L40.372,62.325L40.097,62.528L39.82,62.728L39.541,62.924L39.26,63.117L38.978,63.306L38.693,63.493L38.407,63.675L38.119,63.855L37.829,64.032L37.538,64.205L37.245,64.374L36.95,64.541L36.655,64.704L36.357,64.864L36.058,65.021L35.758,65.174L35.457,65.324L35.154,65.471L34.851,65.614L34.545,65.755L34.239,65.891L33.932,66.025L33.624,66.155L33.314,66.283L33.004,66.406L32.692,66.527L32.38,66.644L32.067,66.758L31.753,66.869L31.438,66.977L31.122,67.081L30.806,67.182L30.489,67.28L30.171,67.375L29.853,67.466L29.534,67.555L29.214,67.64L28.894,67.721L28.573,67.8L28.252,67.876L27.93,67.948L27.608,68.017L27.286,68.083L26.963,68.146L26.64,68.206L26.316,68.263L25.992,68.316L25.668,68.367L25.344,68.414L25.019,68.458L24.694,68.499L24.369,68.537L24.044,68.572L23.719,68.603L23.393,68.631L23.068,68.657L22.742,68.679L22.417,68.697L22.091,68.713L21.766,68.725L21.44,68.734L21.115,68.739L20.79,68.741L20.465,68.74L20.14,68.735L19.815,68.727L19.491,68.715L19.166,68.699L18.843,68.68L18.519,68.657L18.196,68.63L17.874,68.599L17.552,68.564L17.23,68.525L16.909,68.482L16.59,68.435L16.27,68.383L15.952,68.327L15.635,68.267L15.319,68.202L15.004,68.132L14.69,68.058L14.377,67.979L14.066,67.896L13.756,67.807L13.448,67.714L13.142,67.616L12.837,67.514L12.534,67.406L12.233,67.294L11.934,67.176L11.638,67.054L11.344,66.927L11.052,66.795L10.762,66.658L10.475,66.516L10.191,66.369L9.91,66.218L9.631,66.061L9.356,65.9L9.083,65.734L8.814,65.564L8.548,65.388L8.285,65.209L8.026,65.025L7.77,64.836L7.518,64.643L7.27,64.446L7.025,64.244L6.784,64.039L6.547,63.829L6.314,63.616L6.085,63.399L5.86,63.178L5.639,62.954L5.422,62.726L5.209,62.495L5.001,62.26L4.796,62.023L4.596,61.782L4.401,61.539L4.21,61.293L4.023,61.044L3.84,60.792L3.662,60.538L3.489,60.282L3.32,60.023L3.155,59.763L2.996,59.5L2.84,59.235L2.689,58.968L2.543,58.699L2.401,58.429L2.264,58.158L2.131,57.885L2.003,57.61L1.88,57.335L1.761,57.058L1.646,56.78L1.536,56.502L1.43,56.223L1.329,55.943L1.232,55.662L1.139,55.382L1.05,55.1L0.966,54.819L0.886,54.538L0.81,54.256L0.737,53.975L0.669,53.694L0.605,53.413L0.544,53.133L0.488,52.853L0.434,52.574L0.385,52.295L0.339,52.018L0.296,51.741L0.256,51.465L0.22,51.19L0.187,50.916L0.157,50.643L0.13,50.372L0.105,50.101L0.084,49.833L0.065,49.565L0.048,49.299L0.035,49.034L0.023,48.771L0.014,48.509L0.007,48.249L0.003,47.99L0,47.733L0,47.478L0.002,47.224L0.005,46.972L0.01,46.721L0.017,46.472L0.026,46.225L0.036,45.98L0.048,45.736L0.062,45.494L0.076,45.253L0.093,45.014L0.11,44.777L0.129,44.541L0.149,44.307L0.17,44.075L0.192,43.844L0.215,43.614L0.239,43.387L0.265,43.16L0.291,42.936L0.318,42.712L0.346,42.491L0.374,42.27L0.404,42.051L0.434,41.834L0.465,41.617L0.496,41.402L0.528,41.189L0.561,40.976L0.595,40.765L0.629,40.555L0.663,40.346L0.699,40.139L0.734,39.932L0.77,39.727L0.807,39.522L0.844,39.319L0.882,39.116L0.92,38.915L0.958,38.714L0.997,38.514L1.036,38.315L1.076,38.117L1.115,37.92L1.156,37.723L1.197,37.527L1.238,37.332L1.279,37.138L1.321,36.944L1.363,36.75L1.406,36.558L1.449,36.365L1.493,36.173L1.537,35.982L1.582,35.791L1.627,35.601L1.673,35.411L1.719,35.221L1.766,35.032L1.813,34.843L1.861,34.654L1.909,34.466L1.958,34.277L2.007,34.089L2.057,33.902L2.108,33.714L2.159,33.527L2.211,33.339L2.263,33.152L2.316,32.965L2.37,32.778L2.424,32.59L2.478,32.403L2.533,32.216L2.589,32.029L2.646,31.841L2.703,31.654L2.76,31.466L2.818,31.278L2.877,31.09L2.936,30.901L2.996,30.712L3.056,30.523L3.117,30.333L3.178,30.143L3.24,29.953L3.303,29.762L3.366,29.57L3.43,29.378L3.495,29.186L3.56,28.992L3.626,28.799L3.693,28.604L3.761,28.409L3.829,28.213L3.899,28.016L3.969,27.819L4.04,27.621L4.113,27.422L4.186,27.223L4.26,27.022L4.336,26.821L4.413,26.619L4.491,26.417L4.57,26.213L4.65,26.009L4.732,25.804L4.816,25.598L4.9,25.391L4.987,25.184L5.074,24.975L5.164,24.766L5.254,24.556L5.347,24.345L5.441,24.133L5.538,23.921L5.635,23.708L5.735,23.494L5.837,23.279L5.941,23.064L6.047,22.847L6.154,22.631L6.264,22.413L6.377,22.195L6.491,21.976L6.608,21.757L6.727,21.537L6.849,21.317L6.973,21.097L7.099,20.876L7.229,20.654L7.361,20.433L7.495,20.211L7.633,19.989L7.773,19.768L7.916,19.546L8.062,19.324L8.211,19.103L8.363,18.881L8.518,18.66L8.676,18.44L8.837,18.22L9.002,18.001L9.17,17.783L9.341,17.565L9.516,17.349L9.694,17.134L9.876,16.921L10.061,16.709L10.249,16.499L10.442,16.291L10.637,16.085L10.837,15.881L11.04,15.68L11.247,15.481L11.457,15.285L11.671,15.092L11.889,14.903L12.11,14.716L12.335,14.533L12.563,14.354L12.795,14.178L13.03,14.007L13.268,13.839L13.51,13.676L13.755,13.517L14.003,13.363L14.255,13.214L14.509,13.069L14.767,12.929L15.027,12.795L15.29,12.665L15.556,12.541L15.824,12.422L16.094,12.309L16.367,12.201L16.643,12.098L16.92,12.002L17.199,11.911L17.48,11.825L17.763,11.746L18.048,11.672L18.334,11.605L18.621,11.543L18.91,11.487L19.2,11.436L19.491,11.392L19.782,11.354L20.075,11.321L20.368,11.295L20.661,11.274L20.955,11.259L21.25,11.249L21.544,11.246L21.839,11.248L22.133,11.256L22.428,11.269L22.722,11.287L23.016,11.311L23.309,11.341L23.602,11.375L23.894,11.415L24.186,11.459L24.477,11.509L24.767,11.563L25.056,11.621L25.344,11.684L25.631,11.752L25.917,11.823L26.202,11.899L26.486,11.978L26.769,12.061L27.051,12.147L27.332,12.237L27.611,12.331L27.889,12.427L28.167,12.526L28.443,12.629L28.718,12.733L28.992,12.841L29.265,12.95L29.537,13.062L29.808,13.177L30.078,13.293L30.347,13.411L30.615,13.53L30.883,13.652L31.15,13.775L31.416,13.899L31.682,14.025L31.947,14.152L32.212,14.28L32.476,14.409L32.741,14.54L33.005,14.671L33.268,14.803L33.532,14.937L33.796,15.071L34.06,15.206L34.323,15.342L34.587,15.479L34.851,15.617L35.115,15.756L35.38,15.896L35.644,16.037L35.909,16.179L36.174,16.323L36.439,16.468L36.705,16.614L36.97,16.762L37.236,16.911L37.502,17.062L37.768,17.215L38.033,17.37L38.299,17.526L38.565,17.685L38.831,17.846L39.096,18.009L39.361,18.174L39.626,18.342L39.89,18.513L40.153,18.686L40.416,18.862L40.678,19.041L40.939,19.222L41.199,19.407L41.458,19.595L41.716,19.786L41.972,19.98L42.227,20.177L42.48,20.378L42.731,20.582L42.981,20.79L43.228,21.001L43.473,21.216L43.716,21.434L43.957,21.655L44.195,21.881L44.43,22.11L44.663,22.342L44.893,22.578L45.119,22.818L45.343,23.061L45.564,23.308L45.781,23.559L45.995,23.813L46.205,24.07L46.412,24.331L46.615,24.595L46.815,24.862L47.01,25.133L47.202,25.407L47.39,25.684L47.574,25.964L47.754,26.247L47.93,26.533L48.102,26.822L48.269,27.114L48.433,27.408L48.592,27.705L48.747,28.005L48.898,28.307L49.044,28.612L49.186,28.919L49.323,29.228L49.457,29.54L49.585,29.853L49.71,30.169L49.83,30.487L49.946,30.806L50.057,31.128L50.164,31.451L50.266,31.776L50.364,32.102L50.458,32.43L50.548,32.759L50.633,33.09L50.713,33.422L50.79,33.755L50.862,34.09L50.93,34.425L50.994,34.762L51.053,35.099L51.108,35.438L51.159,35.777L51.206,36.117L51.249,36.458L51.288,36.799L51.323,37.141L51.354,37.484L51.381,37.827L51.404,38.17L51.423,38.514" style="fill:white;"/>
                </g>
            </g>
        </g>
    </g>
</svg>
