<?xml version="1.0" encoding="UTF-8" standalone="no"?>
<!DOCTYPE svg PUBLIC "-//W3C//DTD SVG 1.1//EN" "http://www.w3.org/Graphics/SVG/1.1/DTD/svg11.dtd">
<svg width="100%" height="100%" viewBox="0 0 124 124" version="1.1" xmlns="http://www.w3.org/2000/svg" xmlns:xlink="http://www.w3.org/1999/xlink" xml:space="preserve" xmlns:serif="http://www.serif.com/" style="fill-rule:evenodd;clip-rule:evenodd;stroke-linejoin:round;stroke-miterlimit:2;">
    <g transform="matrix(1,0,0,1,-219.752,-297.752)">
        <g transform="matrix(1,0,0,1,173.202,0)">
            <g transform="matrix(0.987576,0,0,0.987576,54.4751,305.677)">
                <clipPath id="_clip1">
                    <path d="M0,51.2C0,33.278 0,24.317 3.488,17.472C6.556,11.451 11.451,6.556 17.472,3.488C24.317,0 33.278,0 51.2,0L57.8,0C75.722,0 84.683,0 91.528,3.488C97.549,6.556 102.444,11.451 105.512,17.472C109,24.317 109,33.278 109,51.2L109,57.8C109,75.722 109,84.683 105.512,91.528C102.444,97.549 97.549,102.444 91.528,105.512C84.683,109 75.722,109 57.8,109L51.2,109C33.278,109 24.317,109 17.472,105.512C11.451,102.444 6.556,97.549 3.488,91.528C0,84.683 0,75.722 0,57.8L0,51.2Z"/>
                </clipPath>
                <g clip-path="url(#_clip1)">
                    <path d="M17.472,105.512L14.748,110.858L17.472,105.512ZM3.488,91.528L-1.858,94.252L3.488,91.528ZM105.512,91.528L100.166,88.804L105.512,91.528ZM91.528,105.512L88.804,100.166L91.528,105.512ZM105.512,17.472L110.858,14.748L105.512,17.472ZM17.472,3.488L14.748,-1.858L17.472,3.488ZM3.488,17.472L-1.858,14.748L3.488,17.472ZM51.2,6L57.8,6L57.8,-6L51.2,-6L51.2,6ZM103,51.2L103,57.8L115,57.8L115,51.2L103,51.2ZM57.8,103L51.2,103L51.2,115L57.8,115L57.8,103ZM6,57.8L6,51.2L-6,51.2L-6,57.8L6,57.8ZM51.2,103C42.14,103 35.706,102.995 30.671,102.584C25.706,102.178 22.632,101.407 20.196,100.166L14.748,110.858C19.158,113.105 23.987,114.078 29.694,114.544C35.331,115.005 42.338,115 51.2,115L51.2,103ZM-6,57.8C-6,66.662 -6.005,73.669 -5.544,79.306C-5.078,85.013 -4.105,89.842 -1.858,94.252L8.834,88.804C7.593,86.368 6.822,83.294 6.416,78.329C6.005,73.294 6,66.86 6,57.8L-6,57.8ZM20.196,100.166C15.304,97.673 11.327,93.696 8.834,88.804L-1.858,94.252C1.785,101.402 7.598,107.215 14.748,110.858L20.196,100.166ZM103,57.8C103,66.86 102.995,73.294 102.584,78.329C102.178,83.294 101.407,86.368 100.166,88.804L110.858,94.252C113.105,89.842 114.078,85.013 114.544,79.306C115.005,73.669 115,66.662 115,57.8L103,57.8ZM57.8,115C66.662,115 73.669,115.005 79.306,114.544C85.013,114.078 89.842,113.105 94.252,110.858L88.804,100.166C86.368,101.407 83.294,102.178 78.329,102.584C73.294,102.995 66.86,103 57.8,103L57.8,115ZM100.166,88.804C97.673,93.696 93.696,97.673 88.804,100.166L94.252,110.858C101.402,107.215 107.215,101.402 110.858,94.252L100.166,88.804ZM57.8,6C66.86,6 73.294,6.005 78.329,6.416C83.294,6.822 86.368,7.593 88.804,8.834L94.252,-1.858C89.842,-4.105 85.013,-5.078 79.306,-5.544C73.669,-6.005 66.662,-6 57.8,-6L57.8,6ZM115,51.2C115,42.338 115.005,35.331 114.544,29.694C114.078,23.987 113.105,19.158 110.858,14.748L100.166,20.196C101.407,22.632 102.178,25.706 102.584,30.671C102.995,35.706 103,42.14 103,51.2L115,51.2ZM88.804,8.834C93.696,11.327 97.673,15.304 100.166,20.196L110.858,14.748C107.215,7.598 101.402,1.785 94.252,-1.858L88.804,8.834ZM51.2,-6C42.338,-6 35.331,-6.005 29.694,-5.544C23.987,-5.078 19.158,-4.105 14.748,-1.858L20.196,8.834C22.632,7.593 25.706,6.822 30.671,6.416C35.706,6.005 42.14,6 51.2,6L51.2,-6ZM6,51.2C6,42.14 6.005,35.706 6.416,30.671C6.822,25.706 7.593,22.632 8.834,20.196L-1.858,14.748C-4.105,19.158 -5.078,23.987 -5.544,29.694C-6.005,35.331 -6,42.338 -6,51.2L6,51.2ZM14.748,-1.858C7.598,1.785 1.785,7.598 -1.858,14.748L8.834,20.196C11.327,15.304 15.304,11.327 20.196,8.834L14.748,-1.858Z" style="fill-rule:nonzero;stroke:black;stroke-width:4.05px;"/>
                </g>
            </g>
            <g transform="matrix(1.06141,0,0,1.06141,83.092,331.658)">
                <path d="M17.438,7.045C17.438,5.704 17.835,4.393 18.581,3.277C19.326,2.162 20.385,1.293 21.624,0.78C22.863,0.266 24.226,0.132 25.542,0.394C26.857,0.655 28.066,1.301 29.014,2.25C29.962,3.198 30.608,4.406 30.87,5.722C31.132,7.037 30.997,8.401 30.484,9.64C29.971,10.879 29.102,11.938 27.986,12.683C26.871,13.428 25.56,13.826 24.219,13.826C22.42,13.826 20.696,13.112 19.424,11.84C18.152,10.568 17.438,8.843 17.438,7.045Z" style="fill-rule:nonzero;"/>
            </g>
            <g transform="matrix(1,0,0,1,84.5793,330.674)">
                <path d="M48.341,20.745C48.164,19.877 47.69,19.098 47,18.542C46.311,17.986 45.448,17.689 44.563,17.701C44.563,17.701 31.003,18.787 24.223,18.787C17.442,18.787 3.875,17.701 3.875,17.701C2.992,17.701 2.135,18.003 1.446,18.557C0.758,19.11 0.279,19.883 0.09,20.745C-0.099,21.608 0.012,22.51 0.405,23.301C0.798,24.092 1.45,24.725 2.253,25.095L2.267,25.095L15.319,30.842L10.01,51.016C9.605,51.943 9.578,52.992 9.935,53.938C10.293,54.884 11.006,55.653 11.923,56.08C12.435,56.324 12.995,56.45 13.563,56.451C14.293,56.452 15.009,56.247 15.628,55.858C16.247,55.47 16.743,54.915 17.06,54.257L24.219,41.92L31.383,54.271C31.828,55.178 32.61,55.874 33.562,56.213C34.514,56.551 35.56,56.505 36.478,56.083C37.395,55.662 38.112,54.899 38.476,53.956C38.839,53.014 38.82,51.967 38.423,51.038L33.114,30.864L46.193,25.11C47.004,24.748 47.663,24.113 48.056,23.316C48.448,22.519 48.549,21.609 48.341,20.745Z" style="fill-rule:nonzero;"/>
            </g>
        </g>
    </g>
</svg>
