<?xml version="1.0" encoding="UTF-8" standalone="no"?>
<!DOCTYPE svg PUBLIC "-//W3C//DTD SVG 1.1//EN" "http://www.w3.org/Graphics/SVG/1.1/DTD/svg11.dtd">
<svg width="100%" height="100%" viewBox="0 0 122 122" version="1.1" xmlns="http://www.w3.org/2000/svg" xmlns:xlink="http://www.w3.org/1999/xlink" xml:space="preserve" xmlns:serif="http://www.serif.com/" style="fill-rule:evenodd;clip-rule:evenodd;stroke-linejoin:round;stroke-miterlimit:2;">
    <g transform="matrix(1,0,0,1,-432.839,-497.039)">
        <g transform="matrix(1,0,0,1,438.839,503.039)">
            <clipPath id="_clip1">
                <path d="M0,51.2C0,33.278 0,24.317 3.488,17.472C6.556,11.451 11.451,6.556 17.472,3.488C24.317,0 33.278,0 51.2,0L57.8,0C75.722,0 84.683,0 91.528,3.488C97.549,6.556 102.444,11.451 105.512,17.472C109,24.317 109,33.278 109,51.2L109,57.8C109,75.722 109,84.683 105.512,91.528C102.444,97.549 97.549,102.444 91.528,105.512C84.683,109 75.722,109 57.8,109L51.2,109C33.278,109 24.317,109 17.472,105.512C11.451,102.444 6.556,97.549 3.488,91.528C0,84.683 0,75.722 0,57.8L0,51.2Z"/>
            </clipPath>
            <g clip-path="url(#_clip1)">
                <path d="M17.472,105.512L14.748,110.858L17.472,105.512ZM3.488,91.528L-1.858,94.252L3.488,91.528ZM105.512,91.528L100.166,88.804L105.512,91.528ZM91.528,105.512L88.804,100.166L91.528,105.512ZM105.512,17.472L110.858,14.748L105.512,17.472ZM17.472,3.488L14.748,-1.858L17.472,3.488ZM3.488,17.472L-1.858,14.748L3.488,17.472ZM51.2,6L57.8,6L57.8,-6L51.2,-6L51.2,6ZM103,51.2L103,57.8L115,57.8L115,51.2L103,51.2ZM57.8,103L51.2,103L51.2,115L57.8,115L57.8,103ZM6,57.8L6,51.2L-6,51.2L-6,57.8L6,57.8ZM51.2,103C42.14,103 35.706,102.995 30.671,102.584C25.706,102.178 22.632,101.407 20.196,100.166L14.748,110.858C19.158,113.105 23.987,114.078 29.694,114.544C35.331,115.005 42.338,115 51.2,115L51.2,103ZM-6,57.8C-6,66.662 -6.005,73.669 -5.544,79.306C-5.078,85.013 -4.105,89.842 -1.858,94.252L8.834,88.804C7.593,86.368 6.822,83.294 6.416,78.329C6.005,73.294 6,66.86 6,57.8L-6,57.8ZM20.196,100.166C15.304,97.673 11.327,93.696 8.834,88.804L-1.858,94.252C1.785,101.402 7.598,107.215 14.748,110.858L20.196,100.166ZM103,57.8C103,66.86 102.995,73.294 102.584,78.329C102.178,83.294 101.407,86.368 100.166,88.804L110.858,94.252C113.105,89.842 114.078,85.013 114.544,79.306C115.005,73.669 115,66.662 115,57.8L103,57.8ZM57.8,115C66.662,115 73.669,115.005 79.306,114.544C85.013,114.078 89.842,113.105 94.252,110.858L88.804,100.166C86.368,101.407 83.294,102.178 78.329,102.584C73.294,102.995 66.86,103 57.8,103L57.8,115ZM100.166,88.804C97.673,93.696 93.696,97.673 88.804,100.166L94.252,110.858C101.402,107.215 107.215,101.402 110.858,94.252L100.166,88.804ZM57.8,6C66.86,6 73.294,6.005 78.329,6.416C83.294,6.822 86.368,7.593 88.804,8.834L94.252,-1.858C89.842,-4.105 85.013,-5.078 79.306,-5.544C73.669,-6.005 66.662,-6 57.8,-6L57.8,6ZM115,51.2C115,42.338 115.005,35.331 114.544,29.694C114.078,23.987 113.105,19.158 110.858,14.748L100.166,20.196C101.407,22.632 102.178,25.706 102.584,30.671C102.995,35.706 103,42.14 103,51.2L115,51.2ZM88.804,8.834C93.696,11.327 97.673,15.304 100.166,20.196L110.858,14.748C107.215,7.598 101.402,1.785 94.252,-1.858L88.804,8.834ZM51.2,-6C42.338,-6 35.331,-6.005 29.694,-5.544C23.987,-5.078 19.158,-4.105 14.748,-1.858L20.196,8.834C22.632,7.593 25.706,6.822 30.671,6.416C35.706,6.005 42.14,6 51.2,6L51.2,-6ZM6,51.2C6,42.14 6.005,35.706 6.416,30.671C6.822,25.706 7.593,22.632 8.834,20.196L-1.858,14.748C-4.105,19.158 -5.078,23.987 -5.544,29.694C-6.005,35.331 -6,42.338 -6,51.2L6,51.2ZM14.748,-1.858C7.598,1.785 1.785,7.598 -1.858,14.748L8.834,20.196C11.327,15.304 15.304,11.327 20.196,8.834L14.748,-1.858Z" style="fill-rule:nonzero;"/>
            </g>
        </g>
        <g transform="matrix(1,0,0,1,156.834,0)">
            <path d="M385.79,531.057C385.79,518.048 375.228,507.486 362.219,507.486L311.061,507.486C298.051,507.486 287.49,518.048 287.49,531.057L287.49,583.775C287.49,596.784 298.051,607.346 311.061,607.346L362.219,607.346C375.228,607.346 385.79,596.784 385.79,583.775L385.79,531.057Z"/>
        </g>
        <g transform="matrix(1,0,0,1,454.839,522.345)">
            <path d="M66,10C66,4.481 61.519,0 56,0L21,0C15.481,0 11,4.481 11,10L11,22C11,27.519 15.481,32 21,32L56,32C61.519,32 66,27.519 66,22L66,10Z" style="fill:rgb(76,76,76);"/>
        </g>
        <g transform="matrix(1,0,0,1,454.839,522.345)">
            <path d="M72,19C72,13.481 67.519,9 62,9L15,9C9.481,9 5,13.481 5,19L5,38C5,43.519 9.481,48 15,48L62,48C67.519,48 72,43.519 72,38L72,19Z" style="fill:rgb(122,122,122);"/>
        </g>
        <g transform="matrix(1,0,0,1,454.839,522.345)">
            <path d="M77,30C77,24.481 72.519,20 67,20L10,20C4.481,20 0,24.481 0,30L0,54C0,59.519 4.481,64 10,64L67,64C72.519,64 77,59.519 77,54L77,30Z" style="fill:white;"/>
        </g>
    </g>
</svg>
