<?xml version="1.0" encoding="UTF-8" standalone="no"?>
<!DOCTYPE svg PUBLIC "-//W3C//DTD SVG 1.1//EN" "http://www.w3.org/Graphics/SVG/1.1/DTD/svg11.dtd">
<svg width="100%" height="100%" viewBox="0 0 66 53" version="1.1" xmlns="http://www.w3.org/2000/svg" xmlns:xlink="http://www.w3.org/1999/xlink" xml:space="preserve" xmlns:serif="http://www.serif.com/" style="fill-rule:evenodd;clip-rule:evenodd;stroke-linejoin:round;stroke-miterlimit:2;">
                <path d="M48.341,20.745C48.164,19.877 47.69,19.098 47,18.542C46.311,17.986 45.448,17.689 44.563,17.701C44.563,17.701 31.003,18.787 24.223,18.787C17.442,18.787 3.875,17.701 3.875,17.701C2.992,17.701 2.135,18.003 1.446,18.557C0.758,19.11 0.279,19.883 0.09,20.745C-0.099,21.608 0.012,22.51 0.405,23.301C0.798,24.092 1.45,24.725 2.253,25.095L2.267,25.095L15.319,30.842L10.01,51.016C9.605,51.943 9.578,52.992 9.935,53.938C10.293,54.884 11.006,55.653 11.923,56.08C12.435,56.324 12.995,56.45 13.563,56.451C14.293,56.452 15.009,56.247 15.628,55.858C16.247,55.47 16.743,54.915 17.06,54.257L24.219,41.92L31.383,54.271C31.828,55.178 32.61,55.874 33.562,56.213C34.514,56.551 35.56,56.505 36.478,56.083C37.395,55.662 38.112,54.899 38.476,53.956C38.839,53.014 38.82,51.967 38.423,51.038L33.114,30.864L46.193,25.11C47.004,24.748 47.663,24.113 48.056,23.316C48.448,22.519 48.549,21.609 48.341,20.745Z" style="fill-rule:nonzero;"/>
</svg>
