<svg width="109" height="109" viewBox="0 0 109 109" fill="none" xmlns="http://www.w3.org/2000/svg">
<rect x="3" y="3" width="103" height="103" rx="29" stroke="black" stroke-width="6"/>
<path d="M48.219 32.7188C48.219 31.3775 48.6167 30.0665 49.3618 28.9513C50.1069 27.8361 51.166 26.967 52.4051 26.4537C53.6442 25.9404 55.0077 25.8061 56.3232 26.0678C57.6386 26.3295 58.8469 26.9753 59.7953 27.9237C60.7436 28.8721 61.3895 30.0804 61.6511 31.3958C61.9128 32.7112 61.7785 34.0747 61.2653 35.3138C60.752 36.5529 59.8828 37.612 58.7677 38.3572C57.6525 39.1023 56.3414 39.5 55.0002 39.5C53.2017 39.5 51.4769 38.7856 50.2051 37.5138C48.9334 36.2421 48.219 34.5173 48.219 32.7188ZM79.1221 46.4193C78.9456 45.5512 78.4715 44.772 77.7817 44.2162C77.0919 43.6604 76.2297 43.3629 75.344 43.375H34.6565C33.773 43.375 32.9161 43.6768 32.2277 44.2305C31.5392 44.7842 31.0607 45.5565 30.8713 46.4194C30.682 47.2823 30.7931 48.184 31.1864 48.9751C31.5797 49.7662 32.2315 50.3991 33.0338 50.769H33.0483L46.0998 56.5161L40.7911 76.6903C40.3859 77.6171 40.3593 78.6657 40.7167 79.6119C41.0742 80.5581 41.7876 81.3271 42.7043 81.7545C43.2167 81.9977 43.7767 82.1243 44.344 82.125C45.0744 82.1261 45.7903 81.9207 46.4091 81.5324C47.0279 81.1442 47.5243 80.589 47.8411 79.9308L55.0002 67.5938L62.1641 79.9453C62.6097 80.8517 63.3916 81.5483 64.3432 81.8868C65.2948 82.2252 66.341 82.1788 67.2588 81.7572C68.1767 81.3357 68.8937 80.5725 69.2571 79.6301C69.6205 78.6878 69.6016 77.6408 69.2045 76.7121L63.8957 56.5379L76.9739 50.7835C77.7855 50.4217 78.4447 49.7871 78.8371 48.9899C79.2296 48.1926 79.3304 47.2831 79.1221 46.4193Z" fill="black"/>
</svg>
